PathFileType	4	(X/Y/Z)	C:/Users/beibeiliu/ov580/test_trc\sequence.1_training_dense_right.trc
DataRate	CameraRate	NumFrames	NumMarkers	Units	OrigDataRate	OrigDataStartFrame	OrigNumFrames
120	120	17	19	mm	120	1	84
Frame#	Time	ThumbCMC			ThumbMCP			ThumbIP			ThumbTip			IndexMCP			IndexPIP			IndexTip			MiddleMCP			MiddlePIP			MiddleTip			RingMCP			RingPIP			RingTip			PinkyMCP			PinkyPIP			PinkyTip			BackHand1			BackHand2			BackHand3	
		X0	Y0	Z0	X1	Y1	Z1	X2	Y2	Z2	X3	Y3	Z3	X4	Y4	Z4	X5	Y5	Z5	X6	Y6	Z6	X7	Y7	Z7	X8	Y8	Z8	X9	Y9	Z9	X10	Y10	Z10	X11	Y11	Z11	X12	Y12	Z12	X13	Y13	Z13	X14	Y14	Z14	X15	Y15	Z15	X16	Y16	Z16	X17	Y17	Z17	X18	Y18	Z18	
0	0	28.7105	77.4516	86.3215	8.78659	64.5609	64.49	3.90204	58.4607	40.9842	1.58884	52.1401	21.7989	31.7384	87.8828	18.6192	28.0912	76.0232	-6.47505	21.6617	64.1817	-22.579	56.4856	86.4734	12.1383	51.8459	77.8051	-12.0041	53.7724	61.0827	-34.626	73.2837	80.73	17.4024	73.7227	73.0235	-5.62435	75.1872	62.2235	-25.9785	90.7772	75.4494	29.9785	97.4132	71.1231	12.5821	104.163	68.3073	-2.7528	73.1008	93.0585	62.3923	73.1531	97.3938	89.8365	47.9692	98.9928	77.2987	
1	0.00833333	27.0678	80.0094	81.5685	13.5841	66.8879	65.8161	6.26297	60.9451	39.933	-0.842411	52.3968	23.9985	32.3622	88.8151	18.8288	26.5108	79.0127	-6.31334	26.0034	62.8453	-24.8289	53.3656	88.4929	13.2778	51.4811	77.5654	-15.3437	53.5439	61.8743	-36.1736	71.4004	83.0683	15.1501	78.3149	74.9352	-2.60839	73.8244	64.3084	-25.4204	90.4708	77.1582	30.8141	98.4344	72.9219	11.4746	100.876	69.2917	-7.14605	73.3064	94.3855	62.413	73.9155	98.3671	89.2031	47.7934	102.18	74.1012	
2	0.0166667	27.006	79.3692	87.6831	14.9609	66.9409	64.0861	5.5292	60.8005	41.5904	2.92098	54.278	23.5403	33.4519	89.098	19.2819	26.6351	81.1376	-2.04797	27.246	65.7278	-21.8064	54.0336	87.8225	9.09813	51.9314	78.2749	-14.1157	54.3792	61.0223	-36.1585	74.8766	83.1476	17.5136	74.7728	76.1926	-1.91024	74.8363	64.4768	-23.2818	91.5903	78.5762	30.0606	98.1819	72.7909	14.6953	101.354	70.9557	-2.64725	74.9729	94.6281	62.08	77.7202	99.0164	87.0915	50.8169	102.431	76.359	
3	0.025	25.8682	78.0667	86.3859	12.3734	64.8103	68.1633	6.42166	59.5697	41.6958	1.2076	51.3854	23.8773	31.2537	88.3502	22.7748	26.6175	77.3499	-3.99426	28.3237	63.2326	-21.4926	57.7495	86.594	12.7601	55.3955	75.7192	-13.3272	56.3316	59.7753	-32.5856	73.1573	82.9292	17.2636	75.6953	74.065	-4.46556	73.0484	62.9006	-22.2838	91.0359	77.1373	32.7485	96.2937	72.2854	17.813	103	68.8854	-4.53204	72.1342	95.2392	63.7712	76.2039	95.527	91.4418	46.6772	100.263	74.7396	
4	0.0333333	24.9807	77.5614	86.691	13.7972	64.0259	68.5204	6.23296	58.4927	44.5	2.99997	50.5426	24.436	33.1975	86.6196	20.4754	27.018	78.3076	-0.135539	29.0203	62.0212	-18.9327	53.5535	86.5257	17.7046	53.3873	74.2831	-11.2933	53.5062	60.8869	-30.3037	72.8114	80.4553	23.8955	73.1382	72.1929	-3.12566	73.763	61.7656	-22.4134	92.35	74.4177	37.2138	97.9651	70.5977	14.9335	103.089	66.1014	-2.86444	73.3118	92.5278	68.5716	79.461	95.5353	92.8571	52.6552	98.1938	79.8111	
5	0.0416667	26.5831	76.7273	86.4334	16.8208	63.7128	68.6356	9.41786	57.3091	49.3214	4.58016	50.5965	28.7051	31.189	86.3034	23.2956	32.0192	76.3931	-0.962205	23.7307	60.77	-20.2264	56.9361	86.236	18.4868	57.0346	76.852	-7.58135	54.0631	62.5833	-28.0266	72.9382	80.9941	21.3689	77.5899	73.7906	0.866423	73.1308	63.8887	-17.4926	95.2561	74.2633	34.9759	96.8049	71.5487	19.1927	106.383	67.1211	-2.66275	78.1772	91.2908	66.665	77.2535	94.3687	91.3421	52.869	98.1364	77.032	
6	0.05	30.0617	74.3147	88.3859	14.0642	62.0706	70.9178	5.77543	56.0753	47.287	2.05165	48.1097	29.3273	33.1304	85.8924	24.4001	27.2884	76.6675	0.144822	29.673	61.6144	-18.2416	54.6974	86.7466	18.5336	54.9732	77.2429	-6.42315	54.8313	61.8603	-28.619	77.7359	81.1018	22.6845	79.1542	74.045	1.62136	77.2405	64.7862	-17.1001	93.0227	74.7398	38.0477	101.665	69.5287	18.4265	106.728	66.6441	-2.39952	75.6407	91.8739	70.9881	75.9747	92.8544	95.0895	51.4046	96.3265	79.4168	
7	0.0583333	29.6114	71.1964	94.0589	14.8756	60.0357	71.8789	7.48999	54.348	49.5728	2.97888	47.5896	28.4719	31.4945	85.5038	25.6154	30.7417	74.4165	0.11581	27.4384	59.6594	-19.2763	56.8939	84.2991	18.2379	55.1394	75.548	-6.50181	57.1979	58.5356	-30.9276	78.5399	78.8204	23.2734	80.2816	72.5709	1.51796	74.7124	65.6068	-16.3723	93.687	73.6488	40.4232	98.6988	70.4394	22.1564	107.691	68.1759	1.3269	75.334	91.2103	68.097	77.5577	91.1122	98.2409	49.9529	94.8666	84.2044	
8	0.0666667	33.0926	70.1091	90.53	15.766	57.8898	73.8981	10.3792	52.7464	53.0199	4.20062	45.0804	32.4769	34.5749	82.4667	25.9387	30.4237	74.3683	2.74845	29.9427	61.2786	-14.4014	58.6852	83.0105	20.9605	56.899	72.4903	-6.91648	55.9996	60.8229	-24.5948	76.3712	78.5419	28.6342	78.1626	71.9687	5.81286	77.3884	62.5033	-17.7	96.337	71.6778	40.2098	99.0047	68.0792	20.7391	108.747	64.8503	5.84602	80.8353	88.5715	70.8309	81.6944	88.4845	96.2626	54.699	91.5216	86.0446	
9	0.075	32.4634	69.5375	96.4876	17.5215	56.5042	74.125	10.8664	51.7445	53.851	5.97406	44.9794	31.5799	38.5184	82.1195	26.8679	31.03	74.3277	7.28623	30.8756	57.9372	-14.9801	57.1731	82.4942	19.4165	58.2854	71.54	-5.51584	56.9578	59.9508	-24.4738	79.2756	77.6714	29.6298	79.1128	71.4088	6.98489	78.0098	62.2636	-14.6457	100.321	70.4786	41.5959	102.271	67.6165	22.8105	106.863	66.935	4.57444	77.4754	85.6468	74.568	82.911	87.3145	96.2183	58.2488	92.5379	87.6473	
10	0.0833333	35.8659	71.7952	93.0187	16.7321	58.8984	72.0153	9.7094	51.6955	51.7363	8.71519	45.4156	30.3834	37.6756	84.0924	30.5205	32.0596	73.6285	3.56275	35.1605	61.2554	-13.7152	61.1674	82.4992	20.3785	62.812	74.5826	-2.35877	61.1052	59.5792	-24.232	82.1632	78.4684	26.1578	82.0695	72.5375	6.24817	80.2994	63.1961	-14.2163	101.954	70.8564	41.7921	103.302	68.6059	23.1676	109.743	66.8717	1.87719	79.0165	87.5199	76.2754	82.817	90.4423	100.467	58.0209	91.6579	87.7516	
11	0.0916667	34.6809	71.5531	96.7413	22.3103	60.7551	73.4871	11.888	54.3388	47.9776	7.70711	46.9022	27.877	36.1567	84.3615	27.7689	34.8421	75.2131	3.47892	33.1367	59.6936	-15.6309	59.0203	84.5152	23.2756	61.5334	75.2591	-4.16088	58.4767	61.2784	-25.4272	81.6238	80.2273	26.6812	83.304	73.0646	6.32791	79.3436	62.8297	-16.0384	98.1476	73.6877	37.4863	105.393	69.3195	20.395	111.466	66.2658	3.80494	81.0843	89.4056	70.7122	82.0697	90.9725	98.4868	53.8225	93.7204	83.5386	
12	0.1	31.633	71.8926	95.5608	20.5747	60.2864	72.8459	12.7572	53.5979	52.8549	7.92651	47.4444	31.9879	34.8055	84.7719	25.2287	34.7566	74.6822	3.55168	29.8711	61.85	-12.4272	58.1285	84.254	18.1054	62.6474	72.6005	-5.87974	61.1151	59.3068	-25.088	79.8365	79.6176	25.2477	84.0735	71.2911	3.08679	77.8891	63.4006	-16.0878	100.234	73.5821	38.5105	102.783	69.723	21.4941	108.107	66.8986	3.20454	78.7796	91.4719	72.0934	80.9888	90.3349	97.4519	53.9024	95.5834	87.0292	
13	0.108333	35.43	72.0334	92.5322	19.5781	59.1433	72.229	13.7674	54.5903	51.2966	7.65525	46.5868	33.416	38.7191	83.3897	28.0916	35.9624	74.2599	3.82542	31.3949	58.0741	-16.9391	63.1878	83.8267	22.6118	62.5503	74.6155	-2.45088	61.9553	57.4037	-27.0167	82.599	78.1777	24.6263	78.4382	71.818	5.63345	80.5523	63.3923	-12.3683	100.766	72.5882	42.464	104.735	67.8839	21.0201	106.551	67.4071	6.08254	78.4003	89.7992	75.2284	80.9618	90.7629	96.5099	53.0411	95.3529	87.2071	
14	0.116667	33.5849	72.2371	92.3335	16.5295	59.0081	74.0742	12.4938	54.7122	51.2967	7.1819	47.8361	27.7241	36.0746	84.2063	24.2593	35.9479	72.7194	1.89601	30.5039	59.5924	-14.7095	58.6037	83.5414	20.6692	62.7828	74.9685	-1.96915	60.4223	58.5839	-26.2657	83.2053	78.3041	26.1525	81.7637	71.1795	2.02295	79.0374	61.7702	-17.1011	99.1621	72.4901	41.7286	106.849	68.9456	25.0268	109.872	66.7791	2.81484	81.9262	89.3096	73.2121	79.5231	91.6542	98.3916	54.066	93.9196	82.9874	
15	0.125	31.6812	73.8664	91.571	18.8255	60.1775	72.4337	11.0839	54.8046	51.3888	7.52693	48.3304	31.5519	35.4535	85.0263	24.8518	32.5771	73.2765	1.68956	28.8103	60.3235	-15.548	59.6627	83.4222	18.0505	57.6777	73.8638	-6.03582	57.7812	61.0447	-25.8942	78.4385	79.8781	24.5103	84.7533	73.0261	5.75608	81.5294	62.8013	-16.352	99.8038	72.9719	40.5377	105.472	68.6803	23.7091	109.091	67.4156	3.76762	83.422	90.7905	73.7079	83.581	92.6773	95.5114	54.9879	94.3409	85.9281	
16	0.133333	35.5351	72.6598	92.3146	17.4851	59.8109	71.5824	13.8445	55.2475	47.6629	7.84834	47.3337	29.0615	35.4957	84.3456	24.0705	31.1486	74.1875	2.98653	32.3872	58.9356	-17.5548	58.7381	84.7288	21.1404	58.0523	74.9622	-3.48477	62.4906	60.3431	-24.9341	78.6036	79.6973	28.9458	81.1745	71.881	2.75872	79.0406	63.1141	-17.7487	99.6291	72.9647	42.6536	103.438	68.121	19.9743	108.098	66.9217	1.56183	81.3397	90.9642	74.1803	83.5523	92.4569	98.9155	56.1409	93.6378	86.664	
